HIERARCHY
ROOT Hips
{
	OFFSET -3.958830 18.904000 13.208200
	CHANNELS 6 Xposition Yposition Zposition Zrotation Yrotation Xrotation 
	JOINT LHipJoint
	{
		OFFSET 0.000000 0.000000 0.000000
		CHANNELS 3 Zrotation Yrotation Xrotation
		JOINT LeftUpLeg
		{
			OFFSET 1.800000 -1.400000 0.085000
			CHANNELS 3 Zrotation Yrotation Xrotation
			JOINT LeftLeg
			{
				OFFSET 2.215000 -6.000000 0.000000
				CHANNELS 3 Zrotation Yrotation Xrotation
				JOINT LeftFoot
				{
					OFFSET 2.500000 -6.900000 0.000000
					CHANNELS 3 Zrotation Yrotation Xrotation
					JOINT LeftToeBase
					{
						OFFSET 0.200000 -0.500000 1.950000
						CHANNELS 3 Zrotation Yrotation Xrotation
						End Site
						{
							OFFSET 0.000000 0.000000 0.000000
						}
					}
				}
			}
		}
	}
	JOINT RHipJoint
	{
		OFFSET 0.000000 0.000000 0.000000
		CHANNELS 3 Zrotation Yrotation Xrotation
		JOINT RightUpLeg
		{
			OFFSET -1.800000 -1.400000 0.085000
			CHANNELS 3 Zrotation Yrotation Xrotation
			JOINT RightLeg
			{
				OFFSET -2.215000 -6.000000 0.000000
				CHANNELS 3 Zrotation Yrotation Xrotation
				JOINT RightFoot
				{
					OFFSET -2.500000 -6.900000 0.000000
					CHANNELS 3 Zrotation Yrotation Xrotation
					JOINT RightToeBase
					{
						OFFSET -0.200000 -0.500000 1.950000
						CHANNELS 3 Zrotation Yrotation Xrotation
						End Site
						{
							OFFSET 0.000000 0.000000 0.000000
						}
					}
				}
			}
		}
	}
	JOINT LowerBack
	{
		OFFSET 0.000000 0.000000 0.000000
		CHANNELS 3 Zrotation Yrotation Xrotation
		JOINT Spine
		{
			OFFSET -0.087000 1.940000 -0.288900
			CHANNELS 3 Zrotation Yrotation Xrotation
			JOINT Spine1
			{
				OFFSET 0.000000 1.950000 0.060000
				CHANNELS 3 Zrotation Yrotation Xrotation
				JOINT Neck
				{
					OFFSET 0.000000 0.000000 0.000000
					CHANNELS 3 Zrotation Yrotation Xrotation
					JOINT Neck1
					{
						OFFSET 0.000000 1.600000 0.340000
						CHANNELS 3 Zrotation Yrotation Xrotation
						JOINT Head
						{
							OFFSET 0.000000 1.667000 -0.240000
							CHANNELS 3 Zrotation Yrotation Xrotation
							End Site
							{
								OFFSET 0.000000 0.000000 0.000000
							}
						}
					}
				}
				JOINT LeftShoulder
				{
					OFFSET 0.000000 0.000000 0.000000
					CHANNELS 3 Zrotation Yrotation Xrotation
					JOINT LeftArm
					{
						OFFSET 2.700000 1.550000 -0.730000
						CHANNELS 3 Zrotation Yrotation Xrotation
						JOINT LeftForeArm
						{
							OFFSET 5.450000 0.000000 0.000000
							CHANNELS 3 Zrotation Yrotation Xrotation
							JOINT LeftHand
							{
								OFFSET 3.450000 0.000000 0.000000
								CHANNELS 3 Zrotation Yrotation Xrotation
								JOINT LeftHandIndex1
								{
									OFFSET 0.750000 0.000000 0.000000
									CHANNELS 3 Zrotation Yrotation Xrotation
									End Site
									{
										OFFSET 0.000000 0.000000 0.000000
									}
								}
							}
						}
					}
				}
				JOINT RightShoulder
				{
					OFFSET 0.000000 0.000000 0.000000
					CHANNELS 3 Zrotation Yrotation Xrotation
					JOINT RightArm
					{
						OFFSET -2.700000 1.550000 -0.730000
						CHANNELS 3 Zrotation Yrotation Xrotation
						JOINT RightForeArm
						{
							OFFSET -5.450000 0.000000 0.000000
							CHANNELS 3 Zrotation Yrotation Xrotation
							JOINT RightHand
							{
								OFFSET -3.450000 0.000000 0.000000
								CHANNELS 3 Zrotation Yrotation Xrotation
								JOINT RightHandIndex1
								{
									OFFSET -0.750000 0.000000 0.000000
									CHANNELS 3 Zrotation Yrotation Xrotation
									End Site
									{
										OFFSET 0.000000 0.000000 0.000000
									}
								}
							}
						}
					}
				}
			}
		}
	}
}
MOTION
Frames: 9
Frame Time: 0.016667
0.871450 15.564040 -0.798000 0.953630 4.330223 -2.569962 -15.164275 13.226516 3.439312 2.687834 -5.722246 -18.060759 -9.924658 10.623231 34.850492 -0.350365 7.572814 2.120853 0.490790 -0.223900 0.365320 18.282085 -10.088895 3.255636 -12.185018 3.655792 -35.225058 5.998937 -10.413222 41.366395 -0.558018 -6.232780 2.394620 0.087500 0.403460 0.134020 -3.664369 -2.942464 -8.130526 10.593482 -4.066668 17.415832 -4.069099 -1.696039 -0.715881 1.258393 -6.999484 -8.122419 -15.269250 3.599216 31.579773 -0.769900 -1.848590 -9.417480 -31.527731 -9.277893 0.541450 -40.770134 -8.522547 -3.259708 -37.763648 -39.152267 9.943384 -3.719784 3.127902 0.801420 0.148000 -0.275270 0.320870 28.799998 13.039376 6.973779 40.985328 -1.470481 -7.012152 5.328869 17.734651 -0.198580 1.742946 -1.230992 -0.500460 0.465540 0.103420 -0.465680 
0.877790 15.538330 -0.805310 0.922201 4.377032 -3.074835 -15.159347 13.165641 3.467607 2.740786 -6.008309 -18.364766 -9.835423 11.006142 36.578726 -0.271183 7.869497 2.016998 0.490620 -0.218400 0.355310 18.304635 -10.011106 3.317549 -12.593363 3.837572 -35.974929 5.439142 -10.934109 44.236523 -0.663051 -6.715342 2.238101 0.080940 0.403000 0.135330 -3.701682 -2.973643 -8.221094 11.122247 -4.297485 18.021449 -4.468088 -1.770673 -1.147322 1.387779 -7.225467 -8.209703 -15.999938 4.067246 32.520746 -0.500400 -1.884460 -9.313800 -32.546522 -9.575252 0.459342 -40.433289 -8.270553 -3.509134 -35.182466 -37.145496 8.409769 -3.698141 3.105213 0.806510 0.140420 -0.263980 0.327070 29.508679 13.423074 7.150278 40.634437 -1.608996 -7.099697 5.119838 17.851143 -0.192394 1.742279 -1.224220 -0.491180 0.468530 0.101700 -0.455840 
0.880510 15.495900 -0.827450 0.888866 4.086304 -3.896850 -15.164752 13.062266 3.499439 3.058403 -6.346075 -18.789914 -9.997408 11.750904 38.944640 -0.165826 8.329579 1.848688 0.505960 -0.204390 0.380670 18.331235 -9.814546 3.490898 -13.435340 4.404907 -37.491359 4.794999 -11.992488 49.495225 -0.884327 -7.625071 1.941557 0.077700 0.364610 0.121150 -3.720243 -3.080760 -8.412779 11.753182 -4.594494 19.361000 -4.974043 -1.791892 -1.867799 1.696176 -7.528520 -8.594411 -17.209885 4.694710 34.380139 -0.603520 -1.789020 -9.788450 -34.104687 -10.451540 0.495514 -39.627598 -7.687155 -3.924908 -31.064635 -33.520829 6.066057 -3.631661 3.049152 0.845570 0.101420 -0.227990 0.325130 30.425686 14.515806 7.614491 40.297105 -1.780676 -7.388647 4.740182 18.384341 -0.184375 1.741512 -1.203724 -0.489580 0.476850 0.085840 -0.464920 
0.883520 15.446230 -0.845600 0.948430 3.981239 -4.633575 -15.182276 12.911380 3.562761 3.412412 -6.856496 -19.650285 -10.152963 12.726551 42.053189 -0.006245 8.943743 1.631064 0.510950 -0.191850 0.386310 18.358853 -9.575175 3.661074 -14.624192 4.907768 -39.028034 4.047536 -13.301937 55.378413 -1.148223 -8.693180 1.611080 0.066460 0.339210 0.121010 -3.725234 -3.203738 -8.622590 12.197372 -4.973903 20.397614 -5.487796 -2.008820 -2.518994 2.042972 -7.652769 -9.057386 -18.095624 5.437284 36.339767 -0.758570 -1.590050 -9.744330 -35.698153 -11.460290 0.750088 -38.899172 -6.713903 -4.329243 -25.996695 -29.388350 3.706720 -3.580361 2.999202 0.862950 0.079000 -0.197300 0.323780 31.331199 15.611059 8.010398 40.083136 -1.915542 -7.801921 5.021135 19.448857 -0.123900 1.735150 -1.194449 -0.472040 0.473740 0.077840 -0.461440 
0.889310 15.396220 -0.856940 0.992605 3.981637 -5.296744 -15.187165 12.722732 3.636847 3.795708 -7.350050 -20.510399 -10.618609 13.877274 44.952439 0.135970 9.584178 1.398192 0.536250 -0.173410 0.432960 18.400472 -9.366921 3.790493 -16.046012 5.274520 -40.026759 3.651942 -14.856030 60.831111 -1.417568 -9.734549 1.290838 0.070170 0.287350 0.115020 -3.771848 -3.230069 -8.803558 12.885916 -5.337181 20.918106 -6.399079 -2.256837 -2.981185 2.494610 -7.397960 -9.241604 -18.069618 5.896577 38.277923 -1.300960 -1.164520 -9.846310 -37.220200 -12.116870 0.868886 -37.838211 -6.028192 -4.155862 -21.457365 -24.490542 1.864883 -3.537221 2.944731 0.890810 0.049510 -0.168690 0.307850 31.842863 16.065593 8.040744 40.421159 -1.698891 -8.183319 5.796095 20.607295 -0.038418 1.732393 -1.194071 -0.464260 0.457740 0.059690 -0.484080 
0.891680 15.343350 -0.861650 1.145830 4.091631 -5.758682 -15.202748 12.558606 3.714421 3.846503 -7.808311 -21.467176 -10.581514 14.812015 47.844905 0.256402 10.199956 1.191711 0.536360 -0.199610 0.474650 18.423797 -9.203942 3.877404 -17.605210 5.487499 -40.436645 3.620438 -16.452842 65.159638 -1.646390 -10.615542 1.025884 0.058510 0.265720 0.127910 -3.780726 -3.234837 -8.957416 13.088801 -5.427717 21.056299 -7.043452 -2.424206 -3.319376 2.929829 -6.720846 -9.197544 -16.862219 5.940142 39.798699 -2.180740 -0.565860 -9.556820 -38.311464 -12.326890 1.017986 -37.203431 -5.093615 -3.873889 -17.671938 -20.286452 0.608381 -3.546838 2.878060 0.919380 0.045590 -0.153170 0.290150 31.970272 15.868526 7.767633 40.955827 -1.514946 -8.774511 7.571874 22.613526 0.198689 1.716253 -1.195775 -0.474430 0.446370 0.060400 -0.512470 
0.890190 15.300790 -0.861260 1.188120 4.232789 -6.020500 -15.196579 12.412998 3.766959 3.955835 -8.060538 -22.371042 -10.365875 15.520858 50.090661 0.339017 10.681973 1.037935 0.501300 -0.257160 0.489400 18.456031 -9.122897 3.925222 -19.158685 5.603118 -40.191075 4.121831 -18.074275 68.032712 -1.808150 -11.291229 0.838868 0.033210 0.268920 0.133230 -3.836503 -3.124255 -9.065500 13.435262 -5.448071 20.695130 -8.077582 -2.524104 -3.416499 3.490992 -5.575684 -9.083079 -14.482202 5.661503 41.182413 -3.290620 0.294420 -8.639600 -39.152102 -12.465984 1.313896 -36.172963 -3.797693 -3.490909 -14.761987 -16.422012 -0.209263 -3.590979 2.794345 0.934700 0.067240 -0.161010 0.265010 31.524600 15.294362 7.377194 42.470636 -1.452929 -9.848712 9.747434 26.081656 0.557450 1.685248 -1.197931 -0.500470 0.441810 0.080260 -0.541950 
0.881210 15.273880 -0.852930 1.192917 3.869325 -6.374213 -15.165866 12.356426 3.752979 4.063921 -7.797063 -22.629253 -10.001568 15.980824 51.368768 0.401815 10.947303 0.951060 0.473570 -0.287760 0.492200 18.487577 -9.154330 3.932349 -20.202430 6.028516 -39.255148 4.469408 -18.978275 69.783791 -1.908159 -11.687239 0.730634 0.013930 0.266920 0.144280 -3.924862 -2.930978 -9.091523 14.006001 -5.343991 20.420501 -9.072935 -2.451207 -3.597654 3.858017 -4.727842 -8.876846 -12.586633 5.326955 42.068738 -4.190410 0.852870 -8.125250 -39.753429 -12.104793 1.539660 -35.057430 -2.195651 -3.154981 -12.840519 -13.447331 -0.668311 -3.631254 2.736839 0.929270 0.084240 -0.160210 0.243980 31.208052 14.481020 6.881007 43.433083 -1.086377 -10.665792 12.354734 29.532907 1.142450 1.672323 -1.213816 -0.501420 0.429600 0.094450 -0.551760 
0.866040 15.264520 -0.830560 0.945761 3.173351 -6.655018 -15.102013 12.349989 3.686059 4.432569 -7.126458 -22.499795 -9.655999 16.294613 51.812340 0.407949 11.086373 0.906875 0.436750 -0.331880 0.477870 18.533488 -9.298971 3.874317 -20.528708 6.729895 -37.416586 4.940556 -19.429176 70.472046 -1.955368 -11.878512 0.685877 -0.003170 0.289180 0.155640 -4.082072 -2.616772 -9.020090 15.071173 -5.203489 19.595495 -10.220215 -2.268111 -3.319415 4.162022 -4.154951 -8.640741 -11.087867 5.119039 42.541770 -4.962600 1.241230 -7.689870 -39.817147 -11.527333 1.770127 -34.283418 -0.699537 -2.671881 -10.750642 -10.644822 -1.042724 -3.698747 2.659270 0.930050 0.111960 -0.171260 0.229370 30.421145 13.657520 6.335136 44.455726 0.051917 -11.026490 15.676925 32.727020 2.046475 1.659854 -1.221939 -0.518990 0.436330 0.123030 -0.560180 
